<svg width="8" height="7" viewBox="0 0 8 7" fill="none" xmlns="http://www.w3.org/2000/svg">
<rect width="1" height="1" fill="#010007"/>
<rect x="1" width="1" height="1" fill="#010007"/>
<rect x="1" y="1" width="1" height="1" fill="#010007"/>
<rect x="2" y="1" width="1" height="1" fill="#010007"/>
<rect x="2" y="2" width="1" height="1" fill="#010007"/>
<rect x="3" y="2" width="1" height="1" fill="#010007"/>
<rect x="4" y="2" width="1" height="1" fill="#010007"/>
<rect x="5" y="2" width="1" height="1" fill="#010007"/>
<rect x="5" y="1" width="1" height="1" fill="#010007"/>
<rect x="6" y="1" width="1" height="1" fill="#010007"/>
<rect x="6" width="1" height="1" fill="#010007"/>
<rect x="7" width="1" height="1" fill="#010007"/>
<rect x="4" y="3" width="1" height="1" fill="#010007"/>
<rect x="3" y="3" width="1" height="1" fill="#010007"/>
<rect x="3" y="4" width="1" height="1" fill="#010007"/>
<rect x="2" y="4" width="1" height="1" fill="#010007"/>
<rect x="2" y="5" width="1" height="1" fill="#010007"/>
<rect x="1" y="5" width="1" height="1" fill="#010007"/>
<rect x="1" y="6" width="1" height="1" fill="#010007"/>
<rect y="6" width="1" height="1" fill="#010007"/>
<rect x="4" y="4" width="1" height="1" fill="#010007"/>
<rect x="5" y="4" width="1" height="1" fill="#010007"/>
<rect x="5" y="5" width="1" height="1" fill="#010007"/>
<rect x="6" y="5" width="1" height="1" fill="#010007"/>
<rect x="6" y="6" width="1" height="1" fill="#010007"/>
<rect x="7" y="6" width="1" height="1" fill="#010007"/>
</svg>
